<svg width="127" height="26" viewBox="0 0 127 26" fill="none" xmlns="http://www.w3.org/2000/svg">
<g clip-path="url(#clip0_6372_89)">
<path d="M8.27306 10.9249L13.1674 5.87726L18.0638 10.929L20.9101 7.99036L13.1674 0L5.4248 7.98831L8.27306 10.9249Z" fill="#D7D3D0"/>
<path d="M0.56543 13L3.41264 10.0624L6.25986 13L3.41264 15.9376L0.56543 13Z" fill="#D7D3D0"/>
<path d="M8.27314 15.0743L13.1675 20.124L18.0639 15.0723L20.9121 18.0068L20.9102 18.0088L13.1675 25.9992L5.42488 18.0129L5.4209 18.0088L8.27314 15.0743Z" fill="#D7D3D0"/>
<path d="M20.0703 13.002L22.9175 10.0644L25.7647 13.002L22.9175 15.9395L20.0703 13.002Z" fill="#D7D3D0"/>
<path d="M16.0555 12.9993L13.1674 10.0176L11.0317 12.221L10.7849 12.4736L10.2794 12.9952L10.2754 12.9993L10.2794 13.0055L13.1674 15.9831L16.0555 13.0014L16.0575 12.9993H16.0555Z" fill="#D7D3D0"/>
<path d="M30.208 6.30078H36.4021C37.9387 6.30078 39.1011 6.71149 39.8893 7.53291C40.1862 7.83634 40.4204 8.19885 40.5774 8.59845C40.7344 8.99806 40.8112 9.42641 40.8029 9.85753V9.89655C40.8082 10.2497 40.7606 10.6016 40.6616 10.9398C40.5734 11.2308 40.4454 11.5074 40.2814 11.7612C40.1285 12.0004 39.9436 12.2162 39.7321 12.4019C39.5254 12.5854 39.299 12.7439 39.0573 12.8742C39.7542 13.1247 40.381 13.5477 40.8825 14.1063C41.3257 14.6266 41.5473 15.3453 41.5473 16.2626V16.3016C41.5599 16.8744 41.4391 17.442 41.195 17.9567C40.9585 18.431 40.6118 18.8374 40.1859 19.1396C39.7043 19.4726 39.1682 19.7127 38.6035 19.8481C37.9326 20.0122 37.2448 20.0915 36.5554 20.0842H30.208V6.30078ZM35.7811 11.8741C36.317 11.9008 36.8503 11.7819 37.3277 11.5291C37.5138 11.4169 37.6658 11.2532 37.7664 11.0565C37.867 10.8598 37.9122 10.638 37.8969 10.4161V10.3771C37.9068 10.1727 37.8665 9.96897 37.7799 9.78485C37.6933 9.60072 37.5631 9.44209 37.4013 9.32361C37.0709 9.08129 36.5939 8.96013 35.9702 8.96013H33.0722V11.8741H35.7811ZM36.5633 17.429C37.0973 17.4598 37.6287 17.3338 38.0959 17.0655C38.278 16.9448 38.4253 16.776 38.5226 16.5767C38.62 16.3773 38.6637 16.1547 38.6493 15.9319V15.8929C38.6564 15.6812 38.6132 15.4709 38.5233 15.2805C38.4335 15.09 38.2997 14.9252 38.1338 14.8004C37.7914 14.5266 37.2381 14.3897 36.4738 14.3897H33.0722V17.429H36.5633Z" fill="#D7D3D0"/>
<path d="M45.2373 6.30078H48.1771V20.0883H45.2373V6.30078Z" fill="#D7D3D0"/>
<path d="M52.626 6.30078H55.3369L61.6027 14.7861V6.30078H64.5047V20.0883H62.0027L55.532 11.3238V20.0883H52.626V6.30078Z" fill="#D7D3D0"/>
<path d="M73.4051 6.20312H76.1121L81.8384 20.0892H78.7692L77.5471 16.9966H71.8964L70.6743 20.0892H67.6768L73.4051 6.20312ZM76.4982 14.3188L74.7188 9.84612L72.9473 14.3188H76.4982Z" fill="#D7D3D0"/>
<path d="M85.0176 6.30078H87.7285L93.9903 14.7861V6.30078H96.8923V20.0883H94.3903L87.9196 11.3238V20.0883H85.0176V6.30078Z" fill="#D7D3D0"/>
<path d="M107.473 20.3307C106.536 20.339 105.608 20.1518 104.743 19.7804C103.928 19.4335 103.189 18.9219 102.57 18.2758C101.95 17.6296 101.462 16.8621 101.134 16.0183C100.788 15.1357 100.613 14.1918 100.618 13.2398V13.2008C100.603 11.3243 101.303 9.51674 102.567 8.16757C103.189 7.50853 103.934 6.98605 104.756 6.63151C105.651 6.24907 106.612 6.05833 107.581 6.0709C108.154 6.06649 108.726 6.11944 109.289 6.22902C109.77 6.323 110.241 6.46821 110.694 6.66232C111.105 6.8407 111.495 7.0652 111.858 7.33178C112.213 7.59176 112.545 7.88162 112.853 8.19837L110.984 10.4244C110.507 9.96984 109.971 9.58498 109.392 9.28059C108.823 9.00001 108.199 8.85941 107.569 8.86988C107.044 8.86411 106.525 8.97355 106.044 9.19094C105.564 9.40834 105.134 9.7287 104.782 10.1308C104.434 10.5318 104.161 10.9963 103.978 11.5005C103.786 12.0333 103.69 12.5976 103.694 13.1659V13.2049C103.692 13.7724 103.788 14.3358 103.978 14.8683C104.159 15.3743 104.429 15.8414 104.774 16.2462C105.123 16.6533 105.552 16.9784 106.033 17.1994C106.513 17.4205 107.035 17.5324 107.561 17.5277C108.231 17.5494 108.896 17.4006 109.498 17.0944C110.07 16.7725 110.599 16.3748 111.072 15.9115L112.943 17.8624C112.613 18.2323 112.255 18.5756 111.874 18.8892C111.5 19.1946 111.093 19.4557 110.662 19.6675C110.203 19.8905 109.719 20.0553 109.221 20.1583C108.646 20.2772 108.06 20.335 107.473 20.3307Z" fill="#D7D3D0"/>
<path d="M116.412 6.30078H126.47V8.99915H119.304V11.7961H125.614V14.4944H119.314V17.39H126.569V20.0883H116.418L116.412 6.30078Z" fill="#D7D3D0"/>
</g>
<defs>
<clipPath id="clip0_6372_89">
<rect width="126" height="26" fill="white" transform="translate(0.566406)"/>
</clipPath>
</defs>
</svg>
