<svg width="83" height="28" viewBox="0 0 83 28" fill="none" xmlns="http://www.w3.org/2000/svg">
<g clip-path="url(#clip0_6372_106)">
<path d="M82.566 14.598C82.566 18.1503 80.3001 20.5476 77.1062 20.5476C73.9124 20.5476 71.6465 18.1503 71.6465 14.598C71.6465 11.0457 73.9124 8.64844 77.1062 8.64844C80.3001 8.64844 82.566 11.0457 82.566 14.598ZM74.2577 14.598C74.2577 16.9299 75.3582 18.3464 77.1062 18.3464C78.8542 18.3464 79.9548 16.9299 79.9548 14.598C79.9548 12.2661 78.8542 10.8495 77.1062 10.8495C75.3582 10.8495 74.2577 12.2661 74.2577 14.598Z" fill="#D7D3D0"/>
<path d="M67.9762 20.3072V18.6945C67.3504 19.7405 65.8399 20.5469 63.8113 20.5469C59.7974 20.5469 56.8193 17.2779 56.8193 12.5488C56.8193 7.79788 59.819 4.41992 63.984 4.41992C67.1562 4.41992 69.2927 6.14159 70.2421 8.90935L67.6094 9.80282C67.1562 7.95043 65.8614 6.88257 64.0055 6.88257C61.3943 6.88257 59.5816 9.12723 59.5816 12.5053C59.5816 15.8832 61.3943 18.1497 64.0487 18.1497C66.293 18.1497 67.7605 16.537 67.8468 14.3141H63.7681V11.8732H70.5011V20.3072H67.9762Z" fill="#D7D3D0"/>
<path d="M51.1037 17.4306V11.0888H49.5283V8.86597H51.1037V5.50977H53.6501V8.86597H56.0239V11.0888H53.6501V17.0166C53.6501 18.0409 54.2328 18.1499 55.1608 18.1499C55.5923 18.1499 55.8298 18.128 56.2181 18.0844V20.2856C55.7434 20.3727 55.096 20.4381 54.427 20.4381C52.269 20.4381 51.1037 19.7625 51.1037 17.4306Z" fill="#D7D3D0"/>
<path d="M46.0078 7.34073V4.66016H48.6838V7.34073H46.0078ZM48.6406 8.8663V20.3077H46.051V8.8663H48.6406Z" fill="#D7D3D0"/>
<path d="M33.2061 20.3077V4.66016H39.3564C42.6798 4.66016 44.4493 6.1203 44.4493 8.77906C44.4493 10.7187 43.3272 11.7212 42.2482 12.157C43.8667 12.6801 44.9457 14.0312 44.9457 15.9491C44.9457 18.695 42.9388 20.3077 39.7449 20.3077H33.2061ZM35.8604 11.1327H39.0975C40.867 11.1327 41.8381 10.4353 41.8381 9.06239C41.8381 7.68942 40.867 7.01383 39.0975 7.01383H35.8604V11.1327ZM35.8604 13.4864V17.954H39.5939C41.3418 17.954 42.2913 17.0387 42.2913 15.7093C42.2913 14.4017 41.3418 13.4864 39.5939 13.4864H35.8604Z" fill="#D7D3D0"/>
<path d="M12.7893 8.15039C14.0727 8.15039 14.8168 8.73784 14.8168 9.73473C14.8168 10.7316 14.1099 11.319 12.9194 11.319H10.7803V8.15039H12.7893Z" fill="#D7D3D0"/>
<path d="M12.9381 13.2402C14.3704 13.2402 15.0958 13.8277 15.0958 15.0027C15.0958 16.0707 14.2216 16.7294 12.8079 16.7294H10.7803V13.2402H12.9381Z" fill="#D7D3D0"/>
<path fill-rule="evenodd" clip-rule="evenodd" d="M24.1614 15.8861C24.1614 22.3329 12.3644 27.9454 12.3644 27.9454C12.3644 27.9454 0.56713 22.3329 0.56713 15.8861C0.56713 14.2121 0.56781 12.7342 0.56846 11.3212C0.569752 8.51205 0.570926 5.95934 0.566406 2.6311C8.0574 -0.807151 16.6723 -0.803583 24.1614 2.63861V15.8861ZM11.4434 4.65972H9.92121V6.17403H8.39899V18.7952H9.92121V20.3099H11.4434V18.7952H12.9656V20.3099H14.4878V18.6497C16.4219 18.2406 17.5323 16.988 17.5323 15.1282C17.5323 13.8286 16.6952 12.6538 15.2629 12.2799C16.5278 11.9061 17.2532 10.8202 17.2532 9.60973C17.2532 7.88733 16.2152 6.6796 14.4878 6.30054V4.65972H12.9656V6.17403H11.4434V4.65972Z" fill="#D7D3D0"/>
</g>
<defs>
<clipPath id="clip0_6372_106">
<rect width="82" height="28" fill="white" transform="translate(0.566406)"/>
</clipPath>
</defs>
</svg>
