<svg width="80" height="25" viewBox="0 0 80 25" fill="none" xmlns="http://www.w3.org/2000/svg">
<g clip-path="url(#clip0_6921_129)">
<mask id="mask0_6921_129" style="mask-type:luminance" maskUnits="userSpaceOnUse" x="0" y="0" width="80" height="25">
<path d="M0.933594 0H79.9336V24.2718H0.933594V0Z" fill="white"/>
</mask>
<g mask="url(#mask0_6921_129)">
<path d="M31.8978 12.1906C32.4922 11.8569 32.9678 11.4412 33.3144 10.9512C33.7084 10.3973 33.9168 9.7352 33.9104 9.05803C33.9104 7.7519 33.4165 6.73172 32.4431 6.02708C31.4813 5.32926 30.1583 4.97656 28.5093 4.97656H22.5467V20.1093H28.7478C30.4843 20.1093 31.8748 19.7103 32.8803 18.9223C33.8935 18.1274 34.4082 17.0146 34.4082 15.6137C34.4082 14.7604 34.1658 14.0269 33.6895 13.433C33.2623 12.9021 32.6602 12.4849 31.8978 12.1906ZM25.7734 7.70411H28.25C29.027 7.70411 29.613 7.85278 29.9941 8.14631C30.37 8.43454 30.5541 8.81531 30.5541 9.30681C30.5541 9.79983 30.37 10.1988 29.9941 10.4893C29.613 10.7821 29.027 10.9307 28.25 10.9307H25.7734V7.70411ZM30.4359 16.869C30.0064 17.2096 29.3506 17.3818 28.4878 17.3818H25.7734V13.6788H28.4885C29.3506 13.6788 30.0072 13.8456 30.4382 14.1718C30.8654 14.498 31.0725 14.928 31.0725 15.4885C31.0725 16.0787 30.8647 16.53 30.4359 16.869ZM38.7685 8.79331H35.5195V20.1085H38.7678L38.7685 8.79331ZM70.8525 10.4961C70.3324 9.88636 69.677 9.40355 68.9373 9.08533C68.1811 8.75387 67.3305 8.58548 66.4109 8.58548C65.2834 8.58548 64.2663 8.83882 63.3866 9.33791C62.5167 9.82757 61.7981 10.5424 61.3081 11.4056C60.8088 12.2778 60.5564 13.2882 60.5564 14.41C60.5564 15.5325 60.8018 16.6096 61.2851 17.4948C61.7572 18.3693 62.4768 19.0889 63.3559 19.5655C64.2433 20.0501 65.2857 20.2959 66.4546 20.2959C67.8888 20.2959 69.1061 19.9394 70.0748 19.2348C71.0067 18.5574 71.6471 17.6025 71.9968 16.4056H68.7264C68.5546 16.8129 68.3122 17.1595 67.9648 17.4037C67.5544 17.692 67.0244 17.8376 66.3894 17.8376C65.8387 17.8376 65.3662 17.7056 64.9858 17.4447C64.6046 17.183 64.3131 16.7977 64.1214 16.2963C63.9989 15.9669 63.9168 15.6242 63.8767 15.2754H72.0536L72.0697 15.1753C72.2154 14.2628 72.1786 13.3981 71.9593 12.6055C71.7495 11.8311 71.3718 11.111 70.8525 10.4954V10.4961ZM63.9289 13.1812C63.9785 12.9468 64.0465 12.7165 64.1321 12.4925C64.3315 11.9843 64.6192 11.5937 64.9881 11.3328C65.3555 11.0718 65.8126 10.9406 66.3464 10.9406C67.016 10.9406 67.5659 11.1553 67.9801 11.5777C68.3736 11.9797 68.596 12.5289 68.6436 13.1804L63.9289 13.1812ZM38.836 4.97656H35.4521V7.70411H38.836V4.97656ZM56.6241 10.0774C56.2578 9.63532 55.8002 9.27583 55.2818 9.02313C54.6759 8.73263 53.9664 8.58548 53.1734 8.58548C52.2031 8.58548 51.3326 8.82289 50.5886 9.28861C49.8446 9.75508 49.254 10.4135 48.836 11.2448C48.418 12.0746 48.2063 13.0485 48.2063 14.1407C48.2063 15.2329 48.4288 16.15 48.869 16.9851C49.31 17.8232 49.9213 18.4907 50.686 18.97C51.4515 19.4502 52.3251 19.6944 53.2823 19.6944C54.0048 19.6944 54.6652 19.5397 55.2435 19.234C55.6893 19.0017 56.0791 18.677 56.3863 18.2821V19.5139C56.3863 20.2777 56.1838 20.864 55.785 21.2546C55.3846 21.6453 54.7756 21.8425 53.9749 21.8425C53.2846 21.8425 52.7423 21.6877 52.3627 21.3821C52.052 21.1318 51.7805 20.8041 51.7176 20.1093H48.5852C48.6144 21.0817 48.9028 21.7363 49.3108 22.3105C49.7672 22.9529 50.4099 23.4558 51.2229 23.8032C52.0267 24.146 52.9609 24.3205 53.9963 24.3205C55.7359 24.3205 57.1203 23.8881 58.1113 23.0363C59.1083 22.18 59.613 20.9808 59.613 19.4729V8.79331H56.6248L56.6241 10.0774ZM56.0526 15.644C55.8644 16.045 55.5642 16.3845 55.1875 16.6225C54.8193 16.85 54.3745 16.9669 53.8667 16.9669C53.1304 16.9669 52.559 16.7188 52.118 16.2099C51.6777 15.7024 51.4545 15.0061 51.4545 14.1399C51.4545 13.2737 51.677 12.5774 52.1172 12.07C52.5536 11.5679 53.1419 11.313 53.866 11.313C54.5908 11.313 55.2304 11.5709 55.6807 12.0814C56.1347 12.5964 56.3648 13.2957 56.3648 14.1597C56.3648 14.7202 56.2597 15.2185 56.0526 15.6433V15.644ZM79.9344 11.5004V8.79407H77.5897V4.97656H74.363V8.79407H72.3604V11.5004H74.363V15.93C74.363 18.3928 74.8539 20.2026 77.9111 20.1465L79.8309 20.1085V17.5729H78.8783C77.5192 17.5729 77.5951 16.7894 77.5951 15.3338L77.5897 11.5011L79.9344 11.5004ZM47.4171 11.5004V8.79407H45.0724V4.97656H41.8457V8.79407H39.8423V11.5004H41.8442V15.93C41.8442 18.3928 42.335 20.2026 45.393 20.1465L47.312 20.1085V17.5729H46.3617C45.0026 17.5729 45.0778 16.7894 45.0778 15.3338L45.0724 11.5011L47.4171 11.5004ZM9.0323 7.70411H13.905L18.8897 12.6017C19.2141 12.9203 19.2156 13.4391 18.8927 13.7592L12.4999 20.1131H7.48145L8.99932 18.6537L14.5707 13.1789L9.06988 7.70335" fill="#D7D3D0"/>
<path d="M11.0345 13.1668H6.1633L1.17787 8.26919C1.10072 8.19344 1.03943 8.10339 0.997518 8.0042C0.955603 7.905 0.933882 7.7986 0.933597 7.69109C0.933312 7.58358 0.954469 7.47707 0.995858 7.37765C1.03725 7.27824 1.09805 7.18787 1.1748 7.11173L7.56766 0.757812H12.5868L11.0697 2.21716L5.49756 7.69198L10.9992 13.1668" fill="#D7D3D0"/>
</g>
</g>
<defs>
<clipPath id="clip0_6921_129">
<rect width="79" height="25" fill="white" transform="translate(0.933594)"/>
</clipPath>
</defs>
</svg>
