<svg width="67" height="26" viewBox="0 0 67 26" fill="none" xmlns="http://www.w3.org/2000/svg">
<g clip-path="url(#clip0_6372_155)">
<path d="M47.5117 19.3916V2.29492H50.914V19.3916H47.5117Z" fill="#D7D3D0"/>
<path d="M7.86025 24.4697H0.566406V7.37305H7.56694C10.9693 7.37305 12.9517 9.24596 12.9517 12.1756C12.9517 14.072 11.6785 15.2975 10.7972 15.7056C11.8491 16.1856 13.1956 17.2659 13.1956 19.5482C13.1956 22.7407 10.9693 24.4697 7.86025 24.4697ZM7.29765 10.3511H3.96868V14.2891H7.29765C8.74152 14.2891 9.54941 13.4966 9.54941 12.3195C9.54941 11.1437 8.74152 10.3511 7.29765 10.3511ZM7.51762 17.2907H3.96868V21.493H7.51762C9.0601 21.493 9.79334 20.533 9.79334 19.3795C9.79334 18.2272 9.05874 17.2907 7.51762 17.2907Z" fill="#D7D3D0"/>
<path d="M23.5734 17.4581V24.4697H20.1951V17.4581L14.957 7.37305H18.6526L21.9082 14.2643L25.1146 7.37305H28.8102L23.5734 17.4581Z" fill="#D7D3D0"/>
<path d="M38.455 24.4697H31.1611V7.37305H38.1617C41.564 7.37305 43.5464 9.24596 43.5464 12.1756C43.5464 14.072 42.2732 15.2975 41.392 15.7056C42.4439 16.1856 43.7904 17.2659 43.7904 19.5482C43.7904 22.7407 41.564 24.4697 38.455 24.4697ZM37.8924 10.3511H34.5634V14.2891H37.8924C39.3362 14.2891 40.1441 13.4966 40.1441 12.3195C40.1441 11.1437 39.3362 10.3511 37.8924 10.3511ZM38.1123 17.2907H34.5634V21.493H38.1123C39.6548 21.493 40.3881 20.533 40.3881 19.3795C40.3881 18.2272 39.6548 17.2907 38.1123 17.2907Z" fill="#D7D3D0"/>
<path d="M61.8799 10.3511V24.471H58.4776V10.3511H53.9248V7.37305H66.4327V10.3511H61.8799Z" fill="#D7D3D0"/>
</g>
<defs>
<clipPath id="clip0_6372_155">
<rect width="65.8667" height="26" fill="white" transform="translate(0.566406)"/>
</clipPath>
</defs>
</svg>
