<svg width="112" height="28" viewBox="0 0 112 28" fill="none" xmlns="http://www.w3.org/2000/svg">
<g clip-path="url(#clip0_6372_117)">
<mask id="mask0_6372_117" style="mask-type:luminance" maskUnits="userSpaceOnUse" x="0" y="0" width="112" height="28">
<path d="M111.41 0H0.649414V28H111.41V0Z" fill="white"/>
</mask>
<g mask="url(#mask0_6372_117)">
<path d="M12.8002 0L0.649414 7V21L12.8002 28L24.951 21V7L12.8002 0ZM19.8033 18.0331L12.8024 22.0663L5.80156 18.0331V9.96688L12.8024 5.93376L19.8033 9.96688V18.0331Z" fill="#D7D3D0"/>
<path d="M38.2816 21.0154C37.0749 21.0154 35.994 20.7399 35.0422 20.1855C34.0891 19.6322 33.3371 18.8337 32.786 17.7876C32.235 16.7415 31.96 15.4826 31.96 14.0098C31.96 12.537 32.2383 11.258 32.7916 10.2086C33.3462 9.16025 34.1003 8.36057 35.0567 7.81065C36.0121 7.26073 37.0874 6.98633 38.2828 6.98633C39.0596 6.98633 39.7846 7.09721 40.4515 7.31673C41.1193 7.53625 41.713 7.85545 42.2339 8.27433C42.7546 8.69321 43.1778 9.20505 43.5067 9.80985C43.8345 10.4146 44.0467 11.1023 44.1454 11.874H41.4347C41.3729 11.4831 41.254 11.1337 41.0765 10.8234C40.8982 10.5154 40.6737 10.2522 40.402 10.035C40.1293 9.81769 39.8193 9.65305 39.4749 9.53993C39.128 9.42681 38.7509 9.37081 38.34 9.37081C37.6172 9.37081 36.9807 9.55113 36.4284 9.91177C35.8774 10.2724 35.4463 10.7977 35.1376 11.4887C34.8279 12.1786 34.6728 13.0209 34.6728 14.0098C34.6728 14.9988 34.8289 15.8578 35.1409 16.5455C35.4542 17.2332 35.883 17.7518 36.4318 18.1034C36.9807 18.4551 37.6137 18.631 38.3287 18.631C38.7272 18.631 39.0976 18.5772 39.44 18.4697C39.7823 18.3633 40.091 18.2065 40.3637 18.0015C40.6354 17.7977 40.8645 17.5468 41.0484 17.25C41.2326 16.9532 41.3617 16.6127 41.4347 16.2286H44.1454C44.0658 16.8692 43.875 17.4785 43.5719 18.053C43.2689 18.6265 42.8648 19.1361 42.3584 19.5785C41.8533 20.022 41.2584 20.3703 40.576 20.629C39.8923 20.8856 39.128 21.0144 38.2838 21.0144V21.0177L38.2816 21.0154Z" fill="#D7D3D0"/>
<path d="M48.2255 14.8663V20.8259H45.5977V7.16406H48.1525V12.362H48.2816C48.5194 11.7695 48.8944 11.3013 49.4028 10.9586C49.9102 10.617 50.5579 10.4445 51.3414 10.4445C52.0519 10.4445 52.6748 10.5969 53.2057 10.9026C53.7389 11.2084 54.1532 11.6485 54.4461 12.2231C54.7402 12.7965 54.8861 13.4921 54.8861 14.3052V20.8236H52.2483V14.7453C52.2483 14.0845 52.0799 13.5705 51.7432 13.1997C51.4064 12.8301 50.9306 12.6453 50.3189 12.6453C49.9079 12.6453 49.5465 12.7338 49.2345 12.9119C48.9214 13.09 48.6755 13.342 48.4949 13.6679C48.314 13.9961 48.2242 14.3925 48.2242 14.8652V14.8674L48.2255 14.8663Z" fill="#D7D3D0"/>
<path d="M59.556 21.0282C58.9004 21.0282 58.3144 20.9116 57.797 20.6798C57.2796 20.4469 56.872 20.1031 56.5746 19.6483C56.2771 19.1936 56.1289 18.6291 56.1289 17.9571C56.1289 17.3837 56.2345 16.9055 56.4467 16.5258C56.6588 16.1461 56.9462 15.8404 57.311 15.6051C57.6758 15.3699 58.0876 15.1919 58.5514 15.0731C59.0137 14.9544 59.4999 14.8704 60.0073 14.8211C60.6078 14.7595 61.0915 14.7036 61.4596 14.652C61.8277 14.6005 62.0948 14.5176 62.2632 14.4045C62.4316 14.2914 62.5158 14.1245 62.5158 13.905V13.8591C62.5158 13.3999 62.3744 13.0437 62.0938 12.7906C61.8121 12.5375 61.4101 12.4098 60.8894 12.4098C60.3382 12.4098 59.9004 12.5296 59.5749 12.7727C59.2506 13.0135 59.034 13.3058 58.9228 13.6474L56.4781 13.3808C56.6307 12.7581 56.9092 12.2272 57.3098 11.7904C57.7106 11.3536 58.2146 11.0199 58.8208 10.7903C59.4269 10.5607 60.116 10.4453 60.8882 10.4453C61.4214 10.4453 61.9412 10.508 62.4463 10.6335C62.9515 10.7578 63.4071 10.9571 63.8158 11.2304C64.2221 11.5026 64.5487 11.8621 64.7888 12.3079C65.0301 12.7547 65.1525 13.298 65.1525 13.9408V20.8256H62.6359V19.4042H62.563C62.4025 19.7088 62.1902 19.9855 61.9198 20.2307C61.6504 20.476 61.3193 20.6687 60.9277 20.8131C60.5359 20.9577 60.079 21.0292 59.5583 21.0292H59.5547L59.556 21.0282ZM60.2708 19.1578C60.7244 19.1578 61.1195 19.0682 61.4563 18.8878C61.793 18.7075 62.0568 18.4667 62.2466 18.1643C62.4362 17.8619 62.5316 17.5271 62.5316 17.1608V16.0139C62.4463 16.0755 62.3195 16.1304 62.1555 16.1797C61.9895 16.229 61.8032 16.2738 61.5943 16.313C61.3866 16.3522 61.18 16.3869 60.978 16.4183C60.7759 16.4485 60.5953 16.4732 60.4359 16.4911C60.0869 16.5404 59.7792 16.6199 59.5121 16.7285C59.245 16.8394 59.0351 16.9883 58.8825 17.1776C58.7297 17.3669 58.6524 17.6055 58.6524 17.8933C58.6524 18.3088 58.8039 18.6235 59.107 18.8386C59.4101 19.0525 59.7973 19.1589 60.2687 19.1589H60.2698L60.2708 19.1578Z" fill="#D7D3D0"/>
<path d="M66.8789 20.8264V10.5762H69.5067V20.8264H66.8789Z" fill="#D7D3D0"/>
<path d="M73.864 14.8659V20.8256H71.2363V10.5741H73.818V12.3616H73.929C74.1614 11.7748 74.5308 11.3088 75.0359 10.9627C75.541 10.6167 76.1762 10.4453 76.9429 10.4453C77.6533 10.4453 78.2742 10.5976 78.8028 10.9034C79.3327 11.208 79.7434 11.6504 80.0353 12.2272C80.3261 12.8051 80.472 13.4973 80.472 14.3037V20.822H77.8442V14.7439C77.8442 14.0898 77.6747 13.5757 77.3347 13.2039C76.9957 12.832 76.5275 12.6439 75.9326 12.6439C75.5285 12.6439 75.1706 12.7323 74.8619 12.9104C74.552 13.0885 74.3096 13.3405 74.1311 13.6664C73.9527 13.9946 73.865 14.3911 73.865 14.8637V14.8659H73.864Z" fill="#D7D3D0"/>
<path d="M84.8249 6.49219V20.8271H82.1973V6.49219H84.8249Z" fill="#D7D3D0"/>
<path d="M86.5547 20.8264V10.5762H89.1823V20.8264H86.5547Z" fill="#D7D3D0"/>
<path d="M93.5358 14.8659V20.8256H90.9082V10.5741H93.4899V12.3616H93.6011C93.8333 11.7748 94.2027 11.3088 94.7078 10.9627C95.2129 10.6167 95.8481 10.4453 96.6149 10.4453C97.3254 10.4453 97.9461 10.5976 98.476 10.9034C99.0058 11.208 99.4165 11.6504 99.7073 12.2272C99.9979 12.8051 100.144 13.4973 100.144 14.3037V20.822H97.5162V14.7439C97.5162 14.0898 97.3466 13.5757 97.0066 13.2039C96.6675 12.832 96.1996 12.6439 95.6047 12.6439C95.2006 12.6439 94.8425 12.7323 94.5338 12.9104C94.2241 13.0885 93.9815 13.3405 93.8031 13.6664C93.6246 13.9946 93.5358 14.3911 93.5358 14.8637V14.8659Z" fill="#D7D3D0"/>
<path d="M108.296 20.827H111.412L107.309 15.0153L111.2 10.5756H108.15L104.666 14.5829H104.502V7.16406H101.873V20.827H104.502V17.4804L105.326 16.5687L108.296 20.8259V20.827Z" fill="#D7D3D0"/>
<path d="M69.5312 6.49219H66.9033V9.11411H69.5312V6.49219Z" fill="#D7D3D0"/>
<path d="M89.2028 6.49219H86.5752V9.11411H89.2028V6.49219Z" fill="#D7D3D0"/>
</g>
</g>
<defs>
<clipPath id="clip0_6372_117">
<rect width="111" height="28" fill="white" transform="translate(0.566406)"/>
</clipPath>
</defs>
</svg>
