<svg width="99" height="22" viewBox="0 0 99 22" fill="none" xmlns="http://www.w3.org/2000/svg">
<g clip-path="url(#clip0_6921_138)">
<path fill-rule="evenodd" clip-rule="evenodd" d="M81.4806 6.53555H84.2149V3.80846H81.4806V6.53555ZM66.9462 11.0794C67.47 9.69666 68.8064 8.71337 70.3738 8.71337C71.9412 8.71337 73.2814 9.69666 73.8013 11.0794H66.9462ZM70.3738 6.1745C66.9462 6.1745 64.1657 8.94767 64.1657 12.3661C64.1657 15.7846 66.9462 18.5578 70.3738 18.5578C72.7269 18.5578 74.7718 17.2518 75.8232 15.3314L73.5317 14.2213C72.8925 15.3006 71.7178 16.0227 70.3738 16.0227C68.6754 16.0227 67.2466 14.8704 66.8307 13.3033H73.9169V13.3072H76.5126C76.5588 12.9999 76.5819 12.6849 76.5819 12.3661C76.5819 8.94767 73.8052 6.1745 70.3738 6.1745ZM77.3059 18.2274H80.0402V15.5004H77.3059V18.2274ZM81.4806 18.2274H84.2149V7.73393H81.4806V18.2274ZM91.8441 16.0227C89.8184 16.0227 88.1778 14.3865 88.1778 12.3661C88.1778 10.3458 89.8184 8.70953 91.8441 8.70953C93.8698 8.70953 95.5104 10.3458 95.5104 12.3661C95.5104 14.3865 93.8698 16.0227 91.8441 16.0227ZM91.8441 6.1745C88.4166 6.1745 85.636 8.94767 85.636 12.3661C85.636 15.7846 88.4166 18.5578 91.8441 18.5578C95.2717 18.5578 98.0522 15.7846 98.0522 12.3661C98.0522 8.94767 95.2717 6.1745 91.8441 6.1745ZM34.6772 10.0846V12.9039H38.5014C38.3012 13.7105 37.9083 14.4326 37.3422 15.0087C36.4873 15.8806 35.3049 16.3569 34.011 16.3569C31.3228 16.3569 29.1354 14.1752 29.1354 11.4904C29.1354 8.8094 31.3228 6.62389 34.011 6.62389C35.4513 6.62389 36.7761 7.23844 37.6927 8.29855L39.8801 6.5125C38.4283 4.8148 36.2754 3.80078 34.011 3.80078C29.7631 3.80078 26.3086 7.24997 26.3086 11.4865C26.3086 15.7231 29.7631 19.1723 34.011 19.1723C36.0752 19.1723 37.9738 18.431 39.3641 17.0137C40.531 15.823 41.3051 14.1637 41.4514 12.5044C41.5246 11.694 41.5323 10.8874 41.4861 10.0769L34.6772 10.0846ZM48.6031 16.0227C46.5812 16.0227 44.9367 14.3865 44.9367 12.3661C44.9367 10.3458 46.5773 8.70953 48.6031 8.70953C50.6288 8.70953 52.2694 10.3458 52.2694 12.3661C52.2694 14.3865 50.6288 16.0227 48.6031 16.0227ZM52.2694 7.38056C51.2411 6.62773 49.9741 6.18602 48.6031 6.18602C45.1755 6.18602 42.3988 8.9592 42.3988 12.3777C42.3988 15.7961 45.1794 18.5693 48.6031 18.5693C49.9741 18.5693 51.2411 18.1237 52.2694 17.3747V18.2313H54.8112V6.52402H52.2694V7.38056ZM60.2644 3.80846H57.7227V6.53555H56.2014V8.92847H57.7227V15.1892C57.7227 15.8345 57.8035 16.3799 57.9653 16.8063C58.1232 17.2288 58.3697 17.5591 58.6585 17.8165C58.9512 18.0776 59.2939 18.2812 59.7022 18.4003C60.1181 18.5155 60.5725 18.5616 61.0578 18.5616C61.5584 18.5616 62.0052 18.5117 62.3826 18.408C62.7369 18.3119 63.0758 18.1775 63.3877 18.0085V16.0803C62.8871 16.2954 62.4172 16.3761 61.8819 16.3991C61.3158 16.426 60.9846 16.2647 60.7073 15.9997C60.4146 15.7231 60.2606 15.3621 60.2606 14.759V8.92847H63.3877V6.53555H60.2606V3.80846H60.2644Z" fill="#D7D3D0"/>
<path fill-rule="evenodd" clip-rule="evenodd" d="M12.7975 17.0424C9.45079 17.0424 6.73571 14.3345 6.73571 10.9967C6.73571 7.65888 9.45079 4.951 12.7975 4.951V0C6.70875 0 1.77539 4.92411 1.77539 10.9967C1.77539 17.0692 6.70875 21.9895 12.7975 21.9895C18.8823 21.9895 23.8195 17.0654 23.8195 10.9967H18.8592C18.8592 14.3383 16.1441 17.0424 12.7975 17.0424Z" fill="#D7D3D0"/>
<path fill-rule="evenodd" clip-rule="evenodd" d="M12.7969 10.9968H18.8586V4.95117H12.7969V10.9968Z" fill="#D7D3D0"/>
</g>
<defs>
<clipPath id="clip0_6921_138">
<rect width="98" height="22" fill="white" transform="translate(0.933594)"/>
</clipPath>
</defs>
</svg>
